<mxfile host="app.diagrams.net" modified="2023-10-17T04:29:50.544Z" agent="Mozilla/5.0 (Windows NT 10.0; Win64; x64; rv:109.0) Gecko/20100101 Firefox/118.0" etag="QJ1Vph6V5O6LCSEPf0Y2" version="22.0.4" type="github">
  <diagram name="Page-1" id="-xq4dSoZwMYGh9U6LxKf">
    <mxGraphModel dx="1467" dy="708" grid="1" gridSize="10" guides="1" tooltips="1" connect="1" arrows="1" fold="1" page="1" pageScale="1" pageWidth="850" pageHeight="1100" background="#ffffff" math="0" shadow="0">
      <root>
        <mxCell id="0" />
        <mxCell id="1" parent="0" />
        <mxCell id="vJsOqaJ4ACu53OdP-SUf-7" value="" style="edgeStyle=orthogonalEdgeStyle;rounded=0;orthogonalLoop=1;jettySize=auto;html=1;strokeWidth=2;" parent="1" source="vJsOqaJ4ACu53OdP-SUf-1" target="vJsOqaJ4ACu53OdP-SUf-6" edge="1">
          <mxGeometry relative="1" as="geometry" />
        </mxCell>
        <mxCell id="vJsOqaJ4ACu53OdP-SUf-1" value="&lt;b&gt;&lt;font style=&quot;font-size: 14px;&quot;&gt;START&lt;/font&gt;&lt;/b&gt;" style="rounded=1;whiteSpace=wrap;html=1;strokeWidth=2;arcSize=50;" parent="1" vertex="1">
          <mxGeometry x="330" y="20" width="150" height="50" as="geometry" />
        </mxCell>
        <mxCell id="vJsOqaJ4ACu53OdP-SUf-18" value="" style="edgeStyle=orthogonalEdgeStyle;rounded=0;orthogonalLoop=1;jettySize=auto;html=1;strokeWidth=2;" parent="1" source="vJsOqaJ4ACu53OdP-SUf-6" target="vJsOqaJ4ACu53OdP-SUf-17" edge="1">
          <mxGeometry relative="1" as="geometry" />
        </mxCell>
        <mxCell id="vJsOqaJ4ACu53OdP-SUf-6" value="&lt;font style=&quot;font-size: 13px;&quot;&gt;&lt;b&gt;Masukan Bilangan&lt;/b&gt;&lt;/font&gt;" style="shape=parallelogram;perimeter=parallelogramPerimeter;whiteSpace=wrap;html=1;fixedSize=1;rounded=1;strokeWidth=2;arcSize=0;" parent="1" vertex="1">
          <mxGeometry x="330" y="130" width="150" height="70" as="geometry" />
        </mxCell>
        <mxCell id="vJsOqaJ4ACu53OdP-SUf-20" style="edgeStyle=orthogonalEdgeStyle;rounded=0;orthogonalLoop=1;jettySize=auto;html=1;strokeWidth=2;" parent="1" source="vJsOqaJ4ACu53OdP-SUf-17" edge="1">
          <mxGeometry relative="1" as="geometry">
            <mxPoint x="530" y="320" as="targetPoint" />
          </mxGeometry>
        </mxCell>
        <mxCell id="vJsOqaJ4ACu53OdP-SUf-36" value="&lt;b&gt;Tidak&lt;/b&gt;" style="edgeLabel;html=1;align=center;verticalAlign=middle;resizable=0;points=[];" parent="vJsOqaJ4ACu53OdP-SUf-20" vertex="1" connectable="0">
          <mxGeometry x="-0.2567" y="-2" relative="1" as="geometry">
            <mxPoint y="-4" as="offset" />
          </mxGeometry>
        </mxCell>
        <mxCell id="vJsOqaJ4ACu53OdP-SUf-28" value="" style="edgeStyle=orthogonalEdgeStyle;rounded=0;orthogonalLoop=1;jettySize=auto;html=1;strokeWidth=2;" parent="1" source="vJsOqaJ4ACu53OdP-SUf-17" target="vJsOqaJ4ACu53OdP-SUf-27" edge="1">
          <mxGeometry relative="1" as="geometry">
            <Array as="points">
              <mxPoint x="405" y="400" />
              <mxPoint x="405" y="400" />
            </Array>
          </mxGeometry>
        </mxCell>
        <mxCell id="vJsOqaJ4ACu53OdP-SUf-29" value="&lt;b&gt;Yes&lt;/b&gt;" style="edgeLabel;html=1;align=center;verticalAlign=middle;resizable=0;points=[];" parent="vJsOqaJ4ACu53OdP-SUf-28" vertex="1" connectable="0">
          <mxGeometry x="-0.0056" y="1" relative="1" as="geometry">
            <mxPoint as="offset" />
          </mxGeometry>
        </mxCell>
        <mxCell id="vJsOqaJ4ACu53OdP-SUf-17" value="&lt;b&gt;&lt;font style=&quot;font-size: 14px;&quot;&gt;bil mod 2 = 0&lt;/font&gt;&lt;/b&gt;" style="rhombus;whiteSpace=wrap;html=1;rounded=1;strokeWidth=2;arcSize=0;" parent="1" vertex="1">
          <mxGeometry x="340" y="270" width="130" height="100" as="geometry" />
        </mxCell>
        <mxCell id="vJsOqaJ4ACu53OdP-SUf-35" style="edgeStyle=orthogonalEdgeStyle;rounded=0;orthogonalLoop=1;jettySize=auto;html=1;exitX=0.5;exitY=1;exitDx=0;exitDy=0;entryX=1;entryY=0.5;entryDx=0;entryDy=0;fontStyle=1;strokeWidth=2;" parent="1" source="vJsOqaJ4ACu53OdP-SUf-22" target="vJsOqaJ4ACu53OdP-SUf-32" edge="1">
          <mxGeometry relative="1" as="geometry" />
        </mxCell>
        <mxCell id="vJsOqaJ4ACu53OdP-SUf-22" value="&lt;b&gt;Genap&lt;/b&gt;" style="shape=parallelogram;html=1;strokeWidth=2;perimeter=parallelogramPerimeter;whiteSpace=wrap;rounded=1;arcSize=0;size=0.23;" parent="1" vertex="1">
          <mxGeometry x="520" y="285" width="110" height="65" as="geometry" />
        </mxCell>
        <mxCell id="vJsOqaJ4ACu53OdP-SUf-33" value="" style="edgeStyle=orthogonalEdgeStyle;rounded=0;orthogonalLoop=1;jettySize=auto;html=1;strokeWidth=2;" parent="1" source="vJsOqaJ4ACu53OdP-SUf-27" target="vJsOqaJ4ACu53OdP-SUf-32" edge="1">
          <mxGeometry relative="1" as="geometry" />
        </mxCell>
        <mxCell id="vJsOqaJ4ACu53OdP-SUf-27" value="&lt;b&gt;Ganjil&lt;/b&gt;" style="shape=parallelogram;perimeter=parallelogramPerimeter;whiteSpace=wrap;html=1;fixedSize=1;rounded=1;strokeWidth=2;arcSize=0;" parent="1" vertex="1">
          <mxGeometry x="345" y="430" width="120" height="60" as="geometry" />
        </mxCell>
        <mxCell id="vJsOqaJ4ACu53OdP-SUf-32" value="&lt;b&gt;END&lt;/b&gt;" style="rounded=1;whiteSpace=wrap;html=1;strokeWidth=2;arcSize=50;" parent="1" vertex="1">
          <mxGeometry x="345" y="540" width="120" height="60" as="geometry" />
        </mxCell>
      </root>
    </mxGraphModel>
  </diagram>
</mxfile>
